<?xml version="1.0" encoding="UTF-8"?>
<svg id="Layer_1" xmlns="http://www.w3.org/2000/svg" version="1.1" viewBox="0 0 1002.3 185.4">
  <!-- Generator: Adobe Illustrator 30.3.0, SVG Export Plug-In . SVG Version: 2.1.3 Build 182)  -->
  <defs>
    <style>
      .st0 {
        fill: #0d627f;
      }

      .st1 {
        fill: #353535;
      }
    </style>
  </defs>
  <path class="st0" d="M514.4,40.1v127.9h-42.6V40.1h-35V4h112.7v36.1h-35Z"/>
  <path class="st0" d="M589.3,4v89.2c0,4.8.2,9.7.5,14.7.4,5,1.4,9.5,3.3,13.6,1.8,4.1,4.7,7.4,8.6,9.9,3.9,2.5,9.4,3.8,16.5,3.8s12.6-1.3,16.4-3.8c3.8-2.5,6.7-5.8,8.6-9.9,1.9-4.1,3-8.6,3.4-13.6.4-5,.5-9.9.5-14.7V4h42.4v95.1c0,25.5-5.8,44.2-17.5,55.9-11.7,11.7-29.6,17.6-53.8,17.6s-42.2-5.9-54-17.6c-11.7-11.7-17.6-30.4-17.6-55.9V4h42.6Z"/>
  <path class="st0" d="M838.6,168h-53.1l-40.7-63.1v63.1h-42.6V4h66.4c9.1,0,17.1,1.3,23.9,4,6.8,2.7,12.4,6.3,16.9,11,4.4,4.6,7.8,10,10,16.1,2.2,6.1,3.4,12.6,3.4,19.6,0,12.5-3,22.6-9,30.4-6,7.8-14.9,13-26.7,15.8l51.6,67.2ZM744.8,77.3h8.1c8.4,0,14.9-1.7,19.4-5.2,4.5-3.5,6.7-8.5,6.7-15s-2.3-11.5-6.7-15c-4.5-3.5-11-5.2-19.4-5.2h-8.1v40.5Z"/>
  <path class="st0" d="M928,40.1h-50.7v27.4h47.9v36.1h-47.9v28.3h50.7v36.1h-93.3V4h93.3v36.1Z"/>
  <path d="M963.5,147.3v3.4h-6.6v17.2h-4.1v-17.2h-6.6v-3.4h17.3ZM985.8,168l-.8-12.1c0-1.6,0-3.6-.2-5.8h-.2c-.5,1.8-1.1,4.3-1.7,6.2l-3.7,11.5h-4.3l-3.7-11.8c-.4-1.6-1-4-1.4-5.8h-.2c0,1.9,0,3.9-.2,5.8l-.8,12.1h-3.9l1.5-20.7h6.2l3.6,10.1c.5,1.6.8,3.1,1.4,5.2h0c.5-1.9,1-3.6,1.4-5.2l3.6-10.2h5.9l1.6,20.7h-4.1Z"/>
  <path class="st1" d="M52.3,4l39.6,99.9L131.8,4h46.3l-69.2,164h-33.9L6,4h46.3Z"/>
  <path class="st1" d="M266.9,40.1h-50.7v27.4h47.9v36.1h-47.9v28.3h50.7v36.1h-93.3V4h93.3v36.1Z"/>
  <path class="st1" d="M275.8,168V4h42.6l78.8,100.3V4h42.4v164h-42.4l-78.8-100.3v100.3h-42.6Z"/>
</svg>